<?xml version="1.0" encoding="UTF-8" standalone="no"?>
<svg
   class="svg"
   version="1.1"
   viewbox="0 0 800 400"
   id="svg14"
   sodipodi:docname="logo.svg"
   width="1960"
   height="540"
   inkscape:version="1.1.1 (3bf5ae0d25, 2021-09-20)"
   xmlns:inkscape="http://www.inkscape.org/namespaces/inkscape"
   xmlns:sodipodi="http://sodipodi.sourceforge.net/DTD/sodipodi-0.dtd"
   xmlns="http://www.w3.org/2000/svg"
   xmlns:svg="http://www.w3.org/2000/svg"
   xmlns:rdf="http://www.w3.org/1999/02/22-rdf-syntax-ns#"
   xmlns:cc="http://creativecommons.org/ns#"
   xmlns:dc="http://purl.org/dc/elements/1.1/">
  <defs
     id="defs18" />
  <sodipodi:namedview
     id="namedview16"
     pagecolor="#ffffff"
     bordercolor="#666666"
     borderopacity="1.0"
     inkscape:pageshadow="2"
     inkscape:pageopacity="0.0"
     inkscape:pagecheckerboard="0"
     showgrid="false"
     width="1960px"
     inkscape:zoom="1.0683333"
     inkscape:cx="1712.4805"
     inkscape:cy="165.67863"
     inkscape:window-width="1872"
     inkscape:window-height="1032"
     inkscape:window-x="48"
     inkscape:window-y="48"
     inkscape:window-maximized="1"
     inkscape:current-layer="svg14" />
  <metadata
     id="metadata2">
    <rdf:RDF>
      <cc:Work
         rdf:about="">
        <dc:format>image/svg+xml</dc:format>
        <dc:type
           rdf:resource="http://purl.org/dc/dcmitype/StillImage" />
      </cc:Work>
    </rdf:RDF>
  </metadata>
  <path
     d="M 1959.6769,455.62488 C 1306.4431,537.27727 653.23381,537.27727 0,455.62488 V 0 h 1959.6769 z"
     fill="#d4aa00"
     id="path4"
     style="stroke-width:2.4496" />
  <path
     d="m 1805.0094,339.17108 c 10.2516,16.73858 23.5884,29.04242 47.1792,29.04242 19.8165,0 32.4743,-9.90421 32.4743,-23.58839 0,-16.39931 -13.0061,-22.20755 -34.8185,-31.74677 l -11.956,-5.1297 c -34.5099,-14.70272 -57.4381,-33.12099 -57.4381,-72.05977 0,-35.86943 27.3301,-63.17263 70.0388,-63.17263 30.4069,0 52.267,10.58274 68.0204,38.29209 l -37.2412,23.91222 c -8.1995,-14.70272 -17.0455,-20.49528 -30.7792,-20.49528 -14.008,0 -22.8863,8.8864 -22.8863,20.49528 0,14.34728 8.8864,20.15577 29.4049,29.04241 l 11.956,5.12162 c 40.6339,17.4252 63.5768,35.19089 63.5768,75.12911 0,43.05655 -33.824,66.64616 -79.2493,66.64616 -44.4161,0 -73.1106,-21.16622 -87.1517,-48.90618 z m -168.9364,4.14423 c 7.5129,13.32948 14.3473,24.59884 30.7792,24.59884 15.7127,0 25.6252,-6.1475 25.6252,-30.05164 V 175.24852 h 47.8235 v 163.26313 c 0,49.52104 -29.0351,72.05977 -71.4131,72.05977 -38.2921,0 -60.4683,-19.8165 -71.7438,-43.68365 z"
     stroke-width="0.807852"
     id="path6" />
  <path
     d="m 827.86552,37.883005 -24.5768,39.107802 50.06729,0.947308 -25.49049,-40.055796 z m 129.03982,16.836074 v 13.659438 h 7.8512 l 0.42104,-5.736464 h 9.4013 v 36.116845 l -5.49248,1.057344 v 6.162208 h 21.26176 v -6.162208 l -5.49248,-1.057344 V 62.642053 h 9.43486 l 0.42581,5.736464 h 7.88475 V 54.719079 h -45.69475 z m 146.79446,7.195689 a 8.0109143,8.0109143 0 0 0 -8.0089,8.013853 8.0109143,8.0109143 0 0 0 8.0089,8.008955 8.0109143,8.0109143 0 0 0 8.0139,-8.008955 8.0109143,8.0109143 0 0 0 -8.0139,-8.013853 z m 160.8797,0.20094 -29.5054,12.55418 -12.5541,29.505382 12.5541,29.50049 29.5054,12.55908 29.5005,-12.55908 12.5591,-29.50049 L 1294.08,74.669888 Z M 461.38144,77.93765 c -1.90035,0.01494 -3.79835,0.919872 -5.2054,2.712682 l -52.68101,67.114038 -21.29042,-26.53403 c -2.11212,-2.63282 -5.94885,-2.6049 -8.02806,0.0574 l -50.33675,64.44643 c -2.83517,3.63103 -0.40789,9.12866 4.03326,9.12866 h 55.19675 46.83872 111.99309 c 6.33074,0 9.57033,-9.04195 5.18629,-14.4776 L 466.61377,80.569104 c -1.42796,-1.770274 -3.33365,-2.646544 -5.23405,-2.631356 z m 172.66713,0 a 5.0069745,5.0069745 0 0 0 -5.00918,5.009179 5.0069745,5.0069745 0 0 0 5.00918,5.004525 5.0069745,5.0069745 0 0 0 5.00452,-5.004525 5.0069745,5.0069745 0 0 0 -5.00452,-5.009179 z m 400.55793,70.09519 a 11.015099,11.015099 0 0 0 -11.0136,11.01829 11.015099,11.015099 0 0 0 11.0136,11.01363 11.015099,11.015099 0 0 0 11.0183,-11.01363 11.015099,11.015099 0 0 0 -11.0183,-11.01829 z m -740.02297,80.94201 v 6.0091 h 20.02741 v -6.0091 z m 48.06353,0 v 6.0091 h 20.02741 v -6.0091 z m 48.06843,0 v 6.0091 h 20.0274 v -6.0091 z m 48.06352,0 v 6.0091 h 20.02741 v -6.0091 z m 48.06843,0 v 6.0091 h 20.02741 v -6.0091 z m 48.06352,0 v 6.0091 h 20.02741 v -6.0091 z m 48.06353,0 v 6.0091 h 20.03206 v -6.0091 z m 48.06842,0 v 6.0091 h 20.02741 v -6.0091 z m 48.06353,0 v 6.0091 h 20.02741 v -6.0091 z m 48.06843,0 v 6.0091 h 20.0274 v -6.0091 z m 48.06352,0 v 6.0091 h 20.02741 v -6.0091 z m 48.06843,0 v 6.0091 h 20.02741 v -6.0091 z m 48.06352,0 v 6.0091 h 20.02741 v -6.0091 z m 48.06843,0 v 6.0091 h 20.02741 v -6.0091 z m 48.06353,0 v 6.0091 h 20.0274 v -6.0091 z m 48.0684,0 v 6.0091 h 20.0274 v -6.0091 z m 48.0635,0 v 6.0091 h 20.0275 v -6.0091 z m 48.0685,0 v 6.0091 h 20.0274 v -6.0091 z m 48.0635,0 v 6.0091 h 20.0274 v -6.0091 z m -887.21923,27.11213 v 22.02726 h 22.03191 v -22.02726 z m 576.78191,38.04958 c -4.43377,0 -8.0043,3.57053 -8.0043,8.0043 0,4.43377 3.57053,8.0043 8.0043,8.0043 h 176.06472 c 4.4338,0 8.0043,-3.57053 8.0043,-8.0043 0,-4.43377 -3.5705,-8.0043 -8.0043,-8.0043 z m 210.08222,0 c -4.4337,0 -8.0043,3.57053 -8.0043,8.0043 0,4.43377 3.5706,8.0043 8.0043,8.0043 h 44.0168 c 4.4338,0 8.0043,-3.57053 8.0043,-8.0043 0,-4.43377 -3.5705,-8.0043 -8.0043,-8.0043 z m 76.0233,0 c -4.4338,0 -7.9994,3.57053 -7.9994,8.0043 0,4.43377 3.5658,8.0043 7.9994,8.0043 h 78.0318 c 4.4338,0 7.9994,-3.57053 7.9994,-8.0043 0,-4.43377 -3.5658,-8.0043 -7.9994,-8.0043 z M 367.70643,320.73672 323.18257,440.3358 h 26.20333 l 8.21472,-24.64538 h 43.20843 l 8.29604,24.64538 h 26.20333 L 390.54205,320.73672 h -22.83587 z m 481.6151,17.41516 c -4.43377,0 -8.0043,3.57053 -8.0043,8.0043 0,4.43377 3.57053,8.0043 8.0043,8.0043 h 72.02792 c 4.43377,0 7.99941,-3.57053 7.99941,-8.0043 0,-4.43377 -3.56588,-8.0043 -7.99941,-8.0043 z m 110.04076,0 c -4.43377,0 -8.0043,3.57053 -8.0043,8.0043 0,4.43377 3.57053,8.0043 8.0043,8.0043 h 118.04361 c 4.4337,0 8.0043,-3.57053 8.0043,-8.0043 0,-4.43377 -3.5706,-8.0043 -8.0043,-8.0043 z m 154.05751,0 c -4.4337,0 -7.9994,3.57053 -7.9994,8.0043 0,4.43377 3.5659,8.0043 7.9994,8.0043 h 50.0208 c 4.4338,0 8.0043,-3.57053 8.0043,-8.0043 0,-4.43377 -3.5705,-8.0043 -8.0043,-8.0043 z m -632.26522,11.66424 c -7.22803,0 -13.74763,1.2602 -19.55366,3.77973 -5.80407,2.46331 -10.29173,5.88246 -13.46788,10.26234 -3.17639,4.38208 -4.7652,9.14875 -4.7652,14.2956 h 23.74002 c 0,-3.34052 1.12311,-5.96796 3.36819,-7.88476 2.30115,-1.91662 5.44692,-2.87534 9.44442,-2.87534 4.54425,0 7.861,1.23295 9.94193,3.6984 2.13495,2.46331 3.20064,5.74822 3.20064,9.8557 v 5.09051 h -10.92275 c -13.19818,0.0541 -23.30398,2.60368 -30.31375,7.64054 -6.95563,5.03881 -10.42989,12.26855 -10.42989,21.6875 0,7.6665 2.84423,14.01707 8.54003,19.05614 5.74993,5.03686 12.98163,7.55455 21.6875,7.55455 9.20068,0 16.6744,-3.19819 22.42434,-9.60707 0.49268,3.17639 1.28711,5.83102 2.38262,7.96609 h 23.98889 v -1.39706 c -2.30112,-4.32598 -3.48136,-10.704 -3.53574,-19.13746 v -38.5248 c 0,-9.96766 -3.23029,-17.68829 -9.69305,-23.16583 -6.40668,-5.52972 -15.08339,-8.29605 -26.03676,-8.29605 z m -102.02078,1.14825 15.03243,44.76637 h -29.90222 z m 470.19998,31.20296 c -4.43377,0 -8.0043,3.57053 -8.0043,8.0043 0,4.43377 3.57053,8.0043 8.0043,8.0043 h 148.05604 c 4.43378,0 8.00428,-3.57053 8.00428,-8.0043 0,-4.43377 -3.5705,-8.0043 -8.00428,-8.0043 z m 182.06872,0 c -4.4338,0 -8.0043,3.57053 -8.0043,8.0043 0,4.43377 3.5705,8.0043 8.0043,8.0043 h 148.056 c 4.4338,0 7.9994,-3.57053 7.9994,-8.0043 0,-4.43377 -3.5659,-8.0043 -7.9994,-8.0043 z M 484.18718,399.922 h 8.87023 v 15.27642 c -1.42395,2.62964 -3.61095,4.73678 -6.56884,6.32485 -2.95617,1.53411 -6.18841,2.30128 -9.69305,2.30128 -3.61291,0 -6.46399,-0.95878 -8.54493,-2.87534 -2.08083,-1.91664 -3.11931,-4.3544 -3.11931,-7.31057 l 0.0813,-1.39703 c 0.76707,-8.21521 7.0906,-12.31976 18.97482,-12.31976 z m 365.1368,26.26212 c -4.43377,0 -8.0043,3.57053 -8.0043,8.0043 0,4.43377 3.57053,8.0043 8.0043,8.0043 h 68.02528 c 4.43377,0 8.0043,-3.57053 8.0043,-8.0043 0,-4.43377 -3.57053,-8.0043 -8.0043,-8.0043 z m 110.04076,0 c -4.43377,0 -8.0043,3.57053 -8.0043,8.0043 0,4.43377 3.57053,8.0043 8.0043,8.0043 H 1111.421 c 4.4337,0 8.0043,-3.57053 8.0043,-8.0043 0,-4.43377 -3.5706,-8.0043 -8.0043,-8.0043 z m -327.33954,3.13842 v 42.05957 h 44.05844 v -42.05957 z m 568.7717,37.05014 a 5.0069745,5.0069745 0 0 0 -5.0045,5.00918 5.0069745,5.0069745 0 0 0 5.0045,5.00453 5.0069745,5.0069745 0 0 0 5.0092,-5.00453 5.0069745,5.0069745 0 0 0 -5.0092,-5.00918 z"
     fill="#ffffff"
     opacity="0.3978"
     stroke-width="2.00274"
     id="path8" />
  <g
     opacity="0.3978"
     id="g12"
     transform="scale(2.4495962)">
    <path
       d="M 120.26,94.701 H 488.17"
       color="#000000"
       color-rendering="auto"
       dominant-baseline="auto"
       fill="#ffffff"
       image-rendering="auto"
       shape-rendering="auto"
       solid-color="#000000"
       stop-color="#000000"
       style="font-variant-ligatures:normal;font-variant-position:normal;font-variant-caps:normal;font-variant-numeric:normal;font-variant-alternates:normal;font-variant-east-asian:normal;font-feature-settings:normal;font-variation-settings:normal;text-indent:0;text-decoration-line:none;text-decoration-style:solid;text-decoration-color:#000000;text-transform:none;text-orientation:mixed;white-space:normal;shape-padding:0;shape-margin:0;inline-size:0;isolation:auto;mix-blend-mode:normal"
       id="path10" />
  </g>
</svg>
